<mxfile host="app.diagrams.net" modified="2022-11-15T17:19:23.198Z" agent="5.0 (X11; Linux x86_64) AppleWebKit/537.36 (KHTML, like Gecko) Chrome/107.0.0.0 Safari/537.36" etag="NWjU785-SDH6H6wODVeM" version="20.5.3" type="github">
  <diagram name="Page-1" id="12e1b939-464a-85fe-373e-61e167be1490">
    <mxGraphModel dx="1195" dy="734" grid="1" gridSize="10" guides="1" tooltips="1" connect="1" arrows="1" fold="1" page="1" pageScale="1.5" pageWidth="1169" pageHeight="826" background="none" math="0" shadow="0">
      <root>
        <mxCell id="0" />
        <mxCell id="1" parent="0" />
        <mxCell id="Ryi-tnCGXTq1vItbzyFN-3" style="edgeStyle=orthogonalEdgeStyle;rounded=0;orthogonalLoop=1;jettySize=auto;html=1;strokeColor=default;strokeWidth=2;endArrow=none;endFill=0;startArrow=none;startFill=0;" edge="1" parent="1" source="60da8b9f42644d3a-31" target="Ryi-tnCGXTq1vItbzyFN-2">
          <mxGeometry relative="1" as="geometry" />
        </mxCell>
        <mxCell id="Ryi-tnCGXTq1vItbzyFN-6" style="edgeStyle=orthogonalEdgeStyle;rounded=0;orthogonalLoop=1;jettySize=auto;html=1;exitX=1;exitY=0.5;exitDx=0;exitDy=0;strokeColor=default;strokeWidth=2;fontSize=24;endArrow=none;endFill=0;" edge="1" parent="1" source="60da8b9f42644d3a-31" target="Ryi-tnCGXTq1vItbzyFN-5">
          <mxGeometry relative="1" as="geometry" />
        </mxCell>
        <mxCell id="60da8b9f42644d3a-31" value="" style="whiteSpace=wrap;html=1;rounded=1;shadow=0;strokeWidth=8;fontSize=20;align=center;fillColor=#001933;strokeColor=none;" parent="1" vertex="1">
          <mxGeometry x="176" y="195" width="360" height="50" as="geometry" />
        </mxCell>
        <mxCell id="60da8b9f42644d3a-32" value="Stimulus Detection" style="text;html=1;strokeColor=none;fillColor=none;align=center;verticalAlign=middle;whiteSpace=wrap;rounded=0;shadow=0;fontSize=24;fontColor=#FFFFFF;fontStyle=1" parent="1" vertex="1">
          <mxGeometry x="220" y="190" width="280" height="60" as="geometry" />
        </mxCell>
        <mxCell id="Ryi-tnCGXTq1vItbzyFN-2" value="&lt;font style=&quot;font-size: 24px;&quot;&gt;S&lt;/font&gt;" style="whiteSpace=wrap;html=1;rounded=1;shadow=0;strokeWidth=8;fontSize=24;align=center;fillColor=none;strokeColor=none;fontStyle=1" vertex="1" parent="1">
          <mxGeometry x="120" y="180" width="30" height="80" as="geometry" />
        </mxCell>
        <mxCell id="Ryi-tnCGXTq1vItbzyFN-9" style="edgeStyle=orthogonalEdgeStyle;rounded=0;orthogonalLoop=1;jettySize=auto;html=1;exitX=1;exitY=0.5;exitDx=0;exitDy=0;strokeColor=default;strokeWidth=2;fontSize=24;fontColor=#FFFFFF;endArrow=none;endFill=0;" edge="1" parent="1" source="Ryi-tnCGXTq1vItbzyFN-5" target="Ryi-tnCGXTq1vItbzyFN-8">
          <mxGeometry relative="1" as="geometry" />
        </mxCell>
        <mxCell id="Ryi-tnCGXTq1vItbzyFN-5" value="&lt;font style=&quot;font-size: 24px;&quot; color=&quot;#ffffff&quot;&gt;&lt;b&gt;Stimulus Identification&lt;/b&gt;&lt;/font&gt;" style="whiteSpace=wrap;html=1;rounded=1;shadow=0;strokeWidth=8;fontSize=20;align=center;fillColor=#001933;strokeColor=none;" vertex="1" parent="1">
          <mxGeometry x="550" y="194" width="360" height="50" as="geometry" />
        </mxCell>
        <mxCell id="Ryi-tnCGXTq1vItbzyFN-11" style="edgeStyle=orthogonalEdgeStyle;rounded=0;orthogonalLoop=1;jettySize=auto;html=1;exitX=1;exitY=0.5;exitDx=0;exitDy=0;strokeColor=default;strokeWidth=2;fontSize=24;fontColor=#FFFFFF;" edge="1" parent="1" source="Ryi-tnCGXTq1vItbzyFN-8" target="Ryi-tnCGXTq1vItbzyFN-10">
          <mxGeometry relative="1" as="geometry" />
        </mxCell>
        <mxCell id="Ryi-tnCGXTq1vItbzyFN-8" value="&lt;font style=&quot;font-size: 24px;&quot; color=&quot;#ffffff&quot;&gt;&lt;b&gt;Response Selection&lt;/b&gt;&lt;/font&gt;" style="whiteSpace=wrap;html=1;rounded=1;shadow=0;strokeWidth=8;fontSize=20;align=center;fillColor=#001933;strokeColor=none;fontColor=#FFFFFF;" vertex="1" parent="1">
          <mxGeometry x="924" y="194" width="360" height="50" as="geometry" />
        </mxCell>
        <mxCell id="Ryi-tnCGXTq1vItbzyFN-10" value="&lt;font style=&quot;font-size: 24px;&quot;&gt;&lt;b&gt;R&lt;/b&gt;&lt;/font&gt;" style="whiteSpace=wrap;html=1;rounded=1;shadow=0;strokeWidth=8;fontSize=20;align=center;fillColor=none;strokeColor=none;fontColor=#000000;" vertex="1" parent="1">
          <mxGeometry x="1322" y="194" width="30" height="50" as="geometry" />
        </mxCell>
      </root>
    </mxGraphModel>
  </diagram>
</mxfile>
